PathFileType	4	(X/Y/Z)	D:\Share\Shared_Data\Ergonomics\Sit To Stand Pertubation\S3\Unperturbed.trc
DataRate	CameraRate	NumFrames	NumMarkers	Units	OrigDataRate	OrigDataStartFrame	OrigNumFrames	
100	100	7	18	m	100	3538	231
Frame#	Time	R_Thigh			R_ASIS			R_Pelvis			V_Sacral			L_Pelvis			L_ASIS			Clavical			R_Acromium			L_Acromium			Sternum			Torso			R_Thigh_Med			R_Thigh_Lat			R_Shank_Med			R_Shank_Lat			R_Shank			R_Heel			R_Toe			
		X1	Y1	Z1	X2	Y2	Z2	X3	Y3	Z3	X4	Y4	Z4	X5	Y5	Z5	X6	Y6	Z6	X7	Y7	Z7	X8	Y8	Z8	X9	Y9	Z9	X10	Y10	Z10	X11	Y11	Z11	X12	Y12	Z12	X13	Y13	Z13	X14	Y14	Z14	X15	Y15	Z15	X16	Y16	Z16	X17	Y17	Z17	X18	Y18	Z18	

3538	35.37	0.14577066	0.58338379	0.10968207	-0.035212795	0.65244635	0.14272116	-0.14076483	0.6229624	0.19724779	-0.2505658	0.60966718	0.013094963	-0.1445672	0.64427466	-0.18660211	-0.038886257	0.65841888	-0.14024179	-0.082869171	1.0292869	-5.9520897e-05	-0.13605052	1.0890298	0.17359584	-0.12433003	1.0856306	-0.15422023	-0.057483761	0.95660583	0.0075320511	-0.076879944	1.0171519	-0.061338234	0.33182083	0.46994443	0.070832268	0.31479053	0.4505965	0.1883654	0.25874646	0.10793554	0.093459366	0.23480501	0.10030686	0.17265402	0.25550204	0.27484326	0.19411873	0.18048064	0.050911259	0.11940283	0.39746045	0.056617199	0.13717023
3539	35.38	0.14585641	0.58336523	0.1096875	-0.034723511	0.65231732	0.14265726	-0.14038077	0.62320001	0.19724738	-0.25023976	0.6102453	0.013075488	-0.14414754	0.64450958	-0.18663803	-0.038163277	0.65836353	-0.14033698	-0.080472397	1.0291912	-5.3718064e-05	-0.13339841	1.08914	0.17358948	-0.12160902	1.0857297	-0.15421272	-0.055536602	0.95638599	0.0075540609	-0.074565788	1.0170227	-0.061356747	0.33186377	0.46993033	0.070877975	0.31481079	0.45057718	0.18841734	0.25875421	0.1079423	0.093462578	0.23481726	0.10031889	0.17265611	0.25550536	0.27483923	0.19414171	0.18048062	0.050924339	0.11941457	0.3974617	0.056620861	0.13717435
3540	35.39	0.14593858	0.58334259	0.10968983	-0.03421817	0.65217896	0.14259239	-0.13998059	0.6234433	0.19724045	-0.24990459	0.61084436	0.013054556	-0.14371512	0.64474957	-0.18667746	-0.037372204	0.65830298	-0.14037511	-0.077917603	1.0290748	-4.094382e-05	-0.13055704	1.0892391	0.17358565	-0.1186983	1.0858188	-0.15418512	-0.053470177	0.95613025	0.0075661559	-0.072101257	1.0168761	-0.061368431	0.33190546	0.46991266	0.070930626	0.31482867	0.4505556	0.18847621	0.25875983	0.10794807	0.093466766	0.23482904	0.10033033	0.17265724	0.25550449	0.27483386	0.19416733	0.18047948	0.050936493	0.11942577	0.39746234	0.056625862	0.13717778
3541	35.4	0.1460148	0.58331537	0.10968774	-0.03369717	0.65203009	0.14252359	-0.13956154	0.62369354	0.19722028	-0.24955989	0.61146454	0.013032303	-0.14327176	0.64499286	-0.18672086	-0.036526596	0.65822986	-0.14032263	-0.0751978	1.0289358	-1.9510854e-05	-0.12752303	1.0893267	0.17358421	-0.11559252	1.085901	-0.15413918	-0.051276085	0.95583386	0.0075641742	-0.069478294	1.0167126	-0.061371868	0.33194516	0.46989191	0.070990082	0.31484375	0.45053311	0.18854053	0.2587634	0.10795299	0.093472313	0.23483882	0.10033977	0.17265833	0.25549995	0.27482748	0.19419559	0.18047763	0.050946182	0.11943441	0.39746265	0.05663166	0.13718106
3542	35.41	0.14608304	0.58328375	0.10968024	-0.033160748	0.65187042	0.14245024	-0.13912195	0.62395026	0.19718367	-0.24920583	0.61210699	0.013008699	-0.14281842	0.64523871	-0.18676628	-0.035653755	0.65813208	-0.14014081	-0.072306557	1.0287712	1.0783382e-05	-0.12429372	1.0894023	0.17358443	-0.11228709	1.0859808	-0.1540827	-0.048945858	0.95549207	0.0075460701	-0.066689903	1.016533	-0.061366524	0.33198209	0.46986923	0.071056175	0.31485498	0.45051105	0.18860883	0.25876538	0.10795743	0.09347934	0.23484514	0.10034584	0.17266049	0.25549272	0.27482037	0.19422641	0.1804758	0.050952194	0.1194392	0.39746292	0.056637199	0.13718542
3543	35.42	0.146142	0.58324823	0.10966706	-0.032607182	0.65169965	0.14237486	-0.13866159	0.6242124	0.19713194	-0.24884198	0.61277374	0.012982893	-0.14235527	0.64548798	-0.18681178	-0.034795948	0.65799261	-0.13979353	-0.069237946	1.0285769	4.9101245e-05	-0.12086588	1.089465	0.17358521	-0.10877567	1.0860643	-0.15402884	-0.046472466	0.95510181	0.0075124974	-0.06373035	1.0163376	-0.061352833	0.33201532	0.46984625	0.071128174	0.3148609	0.45049045	0.18867953	0.2587662	0.10796185	0.09348774	0.23484721	0.10034801	0.17266464	0.25548351	0.27481274	0.19425967	0.18047466	0.05095462	0.11944003	0.39746381	0.056640602	0.13719322
3544	35.43	0.14619101	0.5832099	0.10964867	-0.032031605	0.65151752	0.14230142	-0.13818063	0.62448041	0.19706888	-0.2484668	0.61346844	0.012953765	-0.14188116	0.64574304	-0.1868569	-0.034007294	0.65779327	-0.13926314	-0.065986435	1.0283483	9.4304644e-05	-0.11723499	1.0895133	0.17358548	-0.10504873	1.0861587	-0.15399812	-0.043850475	0.95466125	0.0074665446	-0.060594997	1.0161265	-0.061332062	0.3320437	0.46982474	0.071204628	0.31485977	0.45047195	0.18875143	0.25876624	0.10796658	0.093497169	0.23484579	0.10034692	0.17267122	0.25547237	0.27480469	0.19429495	0.18047433	0.05095467	0.1194379	0.39746576	0.056638947	0.13720781
